<?xml version="1.0" encoding="UTF-8"?>
<svg width="25px" height="16px" viewBox="0 0 25 16" version="1.1" xmlns="http://www.w3.org/2000/svg" xmlns:xlink="http://www.w3.org/1999/xlink">
    <title>A408A650-D573-486D-A450-4FB2215145C5</title>
    <g id="Page-1" stroke="none" stroke-width="1" fill="none" fill-rule="evenodd">
        <g id="PDP-Details-Tab-Expanded" transform="translate(-1043.000000, -707.000000)" fill="#333A3D" fill-rule="nonzero">
            <g id="Group-9" transform="translate(1043.604815, 706.348466)">
                <g id="Delivery-Truck" transform="translate(0.000000, 1.000000)">
                    <path d="M24,8.30370136 L24,10.2895928 L15.6923077,10.2895928 L15.6923077,2.05791855 L19.3846154,2.05791855 C20.4046154,2.05791855 21.2307692,2.9788371 21.2307692,4.1158371 L21.2307692,6.24578281 L22.1538462,6.24578281 C23.1738462,6.24578281 24,7.16670136 24,8.30370136 Z M19.8461538,6.24578281 L19.8461538,4.1158371 C19.8461538,3.82721403 19.6384615,3.60135747 19.3846154,3.60135747 L17.0769231,3.60135747 L17.0769231,6.24578281 L19.8461538,6.24578281 Z" id="Shape"></path>
                    <path d="M24,11.318552 L24,13.3764706 L22.3938462,13.3764706 C22.3938462,12.6150407 22.1450769,11.8844796 21.6923077,11.318552 L24,11.318552 Z" id="Path"></path>
                    <ellipse id="Oval" cx="19.6246154" cy="13.3764706" rx="1.84615385" ry="2.05791855"></ellipse>
                    <path d="M7.74923077,11.318552 L17.5615385,11.318552 C17.1096923,11.8844796 16.8553846,12.6150407 16.8553846,13.3764706 L8.45538462,13.3764706 C8.45538462,12.6150407 8.20153846,11.8844796 7.74923077,11.318552 Z" id="Path"></path>
                    <path d="M5.68615385,11.318552 C6.70153846,11.318552 7.53230769,12.2394706 7.53230769,13.3764706 C7.53230769,14.5134706 6.70153846,15.4343891 5.68615385,15.4343891 C4.66615385,15.4343891 3.84,14.5134706 3.84,13.3764706 C3.84,12.2394706 4.66615385,11.318552 5.68615385,11.318552 Z" id="Path"></path>
                    <path d="M0,11.318552 L3.61846154,11.318552 C3.16615385,11.8844796 2.91692308,12.6150407 2.91692308,13.3764706 L0,13.3764706 L0,11.318552 Z" id="Path"></path>
                    <polygon id="Path" points="14.7692308 0 14.7692308 10.2895928 0 10.2895928 0 8.23167421 1.84615385 8.23167421 1.84615385 6.17375566 0 6.17375566 0 4.1158371 3.69230769 4.1158371 3.69230769 2.05791855 0 2.05791855 0 0"></polygon>
                </g>
            </g>
        </g>
    </g>
</svg>