<?xml version="1.0" encoding="UTF-8"?>
<svg width="20px" height="17px" viewBox="0 0 20 17" version="1.1" xmlns="http://www.w3.org/2000/svg" xmlns:xlink="http://www.w3.org/1999/xlink">
    <title>In Stock</title>
    <g id="Page-1" stroke="none" stroke-width="1" fill="none" fill-rule="evenodd">
        <g id="Colors-and-Badges" transform="translate(-40.000000, -341.000000)" fill="#00B795" fill-rule="nonzero">
            <g id="In-Stock-badge" transform="translate(40.706767, 333.218242)">
                <path d="M10.8236555,8.5 L8,8.5 C3.58823529,8.5 0,12.0881513 0,16.5 C0,20.9118487 3.58815126,24.5 8,24.5 L10.8234874,24.5 C15.2352521,24.5 18.8234874,20.9118487 18.8234874,16.5 C18.8234874,12.0882353 15.2354622,8.5 10.8239076,8.5 L10.8236555,8.5 Z M8.94357143,19.7563025 C8.78354622,19.9163277 8.56476471,20.0080756 8.33647059,20.0080756 C8.10817647,20.0080756 7.88936975,19.9163277 7.72936975,19.7563025 L4.58369748,16.6104622 L5.80021008,15.3963866 L8.33663866,17.9328151 L13.0236134,13.2433193 L14.2401261,14.4598319 L8.94357143,19.7563025 Z" id="In-Stock"></path>
            </g>
        </g>
    </g>
</svg>