<?xml version="1.0" encoding="UTF-8"?>
<svg width="20px" height="17px" viewBox="0 0 20 17" version="1.1" xmlns="http://www.w3.org/2000/svg" xmlns:xlink="http://www.w3.org/1999/xlink">
    <title>Limited Stock</title>
    <g id="Page-1" stroke="none" stroke-width="1" fill="none" fill-rule="evenodd">
        <g id="Colors-and-Badges" transform="translate(-40.000000, -376.000000)" fill="#FB9600" fill-rule="nonzero">
            <g id="In-Stock-badge-Copy-2" transform="translate(40.706767, 367.714262)">
                <g id="Limited-Stock" transform="translate(0.000000, 8.500000)">
                    <path d="M8.33668067,9.43310924 L5.8002521,6.89651261 L4.5837395,8.11302521 L7.72957983,11.2588655 C7.88960504,11.4188908 8.10838655,11.5106387 8.33668067,11.5106387 C8.56497479,11.5106387 8.78378151,11.4188908 8.94378151,11.2588655 L14.24,5.96264706 L13.0234874,4.74613445 L8.33668067,9.43310924 Z" id="Path"></path>
                    <path d="M10.8236555,0 L8,0 C3.58823529,0 0,3.58815126 0,8 C0,12.4118487 3.58815126,16 8,16 L10.8236555,16 C15.2354202,16 18.8236555,12.4118487 18.8236555,8 C18.8236555,3.58815126 15.2355042,0 10.8236555,0 Z M10.8236555,14.2823529 L8,14.2823529 C4.53638655,14.2823529 1.71764706,11.4634454 1.71764706,8 C1.71764706,4.53638655 4.53655462,1.71764706 8,1.71764706 L10.8236555,1.71764706 C14.2872689,1.71764706 17.1060084,4.53655462 17.1060084,8 C17.1060084,11.4636134 14.2871008,14.2823529 10.8236555,14.2823529 Z" id="Shape"></path>
                </g>
            </g>
        </g>
    </g>
</svg>