<?xml version="1.0" encoding="UTF-8"?>
<svg width="20px" height="17px" viewBox="0 0 20 17" version="1.1" xmlns="http://www.w3.org/2000/svg" xmlns:xlink="http://www.w3.org/1999/xlink">
    <title>Unavailable</title>
    <g id="Page-1" stroke="none" stroke-width="1" fill="none" fill-rule="evenodd">
        <g id="Colors-and-Badges" transform="translate(-40.000000, -407.000000)" fill="#FF5F5E" fill-rule="nonzero">
            <g id="Group" transform="translate(40.706767, 398.714262)">
                <g id="Unavailable" transform="translate(0.000000, 8.503980)">
                    <path d="M10.8236555,0 L8,0 C3.58823529,0 0,3.58815126 0,8 C0,12.4118487 3.58815126,16 8,16 L10.8236555,16 C15.2354202,16 18.8236555,12.4118487 18.8236555,8 C18.8236555,3.58815126 15.2355042,0 10.8236555,0 Z M10.8236555,14.2823529 L8,14.2823529 C4.53638655,14.2823529 1.71764706,11.4634454 1.71764706,8 C1.71764706,4.53638655 4.53655462,1.71764706 8,1.71764706 L10.8236555,1.71764706 C14.2872689,1.71764706 17.1060084,4.53655462 17.1060084,8 C17.1060084,11.4636134 14.2871008,14.2823529 10.8236555,14.2823529 Z" id="Shape"></path>
                    <polygon id="Path" points="12.3366807 3.88436975 9.43785714 6.78319328 6.53903361 3.88436975 5.32483193 5.10088235 8.22365546 7.99970588 5.32483193 10.8985294 6.53903361 12.115042 9.43785714 9.21621849 12.3366807 12.115042 13.5530252 10.8985294 10.6542017 7.99970588 13.5530252 5.10088235"></polygon>
                </g>
            </g>
        </g>
    </g>
</svg>