<svg viewBox="0 0 132 23" xmlns="http://www.w3.org/2000/svg" xmlns:xlink="http://www.w3.org/1999/xlink"><defs><path id="a" d="M0 0h25.343v22H0z"/><path id="c" d="M0 0h11.23v16.22H0z"/><path id="e" d="M0 22h130.277V0H0z"/></defs><g transform="translate(.862 .118)" fill="none" fill-rule="evenodd"><mask id="b" fill="#fff"><use xlink:href="#a"/></mask><path d="M2.928.812A2.118 2.118 0 00.812 2.927v16.145c0 1.167.95 2.116 2.116 2.116h19.487a2.117 2.117 0 002.116-2.116V2.927A2.117 2.117 0 0022.415.812H2.928zM22.415 22H2.928A2.931 2.931 0 010 19.072V2.927A2.931 2.931 0 012.928 0h19.487a2.93 2.93 0 012.928 2.927v16.145A2.93 2.93 0 0122.415 22z" fill="#FFF" mask="url(#b)"/><path fill="#FFF" d="M14.787 4.549L10.64 6.133l-.33 2.069 3.447 2.787zM13.342 11.321l-3.244-1.8-2.71-1.505-2.529.93-1.721.634 6.108 3.39.706-.26 3.543-1.304zM19.303 9.205c-1.224-.895-2.575.516-2.575.516l-2.298 1.811-.519.408-6.252 4.928 9.14-1.496 2.547-4.137 2.372-.256s-1.19-.88-2.415-1.774M49.53 2.89l-2.783 10.885-.214 1.143h-.096L43.527 2.89h-3.49l-2.934 12.028h-.096l-.214-1.143L34.055 2.89h-3.39l4.413 16.005h3.739l2.935-11.438h.095l2.828 11.438h3.715L52.826 2.89zM60.741 7.132c-1.334 0-2.738.619-3.453 1.095V2.89h-2.905v16.005h2.905v-7.668s1.762-1.405 2.881-1.405c1.12 0 1.69.739 1.69 2.143v6.93h2.93v-6.81c0-3-1-4.953-4.048-4.953M76.366 4.538H73.49l-.054 2.784h-1.691v2.572h1.69V15.3c0 2.238 1.668 3.834 4.168 3.834.571 0 1.675-.031 1.675-.031l.524-2.62s-1.008.03-1.675.03c-1.096 0-1.762-.618-1.762-1.476V9.894h3.102l.206-2.572h-3.308V4.538zM86.044 9.608c1.091 0 1.956.727 2.356 1.604l-5.27 1.713s-.125.022.08-1.055c.205-1.076 1.476-2.262 2.834-2.262m.238 7.025c-1.124 0-2.044-.522-2.595-1.276l7.692-2.473s.221-1.103-.393-2.545c-.615-1.442-2.377-3.255-5.014-3.255-3.429 0-5.834 2.572-5.834 5.906 0 3.595 2.12 6.144 5.977 6.144 1.882 0 3.239-.358 4.5-.953l-.857-2.382c-.69.381-2.167.834-3.476.834"/><g transform="translate(119.047 2.89)"><mask id="d" fill="#fff"><use xlink:href="#c"/></mask><path d="M5.858 6.79c.904 0 1.81.357 2.429 1v3.656c0 1.25-1.13 2.214-2.402 2.225h-.027c-1.976 0-2.953-1.643-2.953-3.5 0-1.881 1.072-3.382 2.953-3.382M0 10.052c0 3.763 2.259 6.168 5.498 6.168 5.46 0 5.732-4.569 5.732-4.569L11.172 0H8.287v4.932c-.714-.405-1.786-.738-2.762-.738C2.215 4.194 0 6.86 0 10.052" fill="#FFF" mask="url(#d)"/></g><path d="M118.261 10.275c-.404-.238-1.048-.381-1.572-.381-1.38 0-2.738 1.357-2.738 1.357v7.644h-2.953V7.322h2.786l.096 1.095c.57-.5 1.81-1.262 2.976-1.262.786 0 1.715.239 2.31.62l-.905 2.5zM101.109 12.954c0 1.857-.977 3.5-2.953 3.5h-.027c-1.271-.011-2.402-.975-2.402-2.224v-3.658c.62-.642 1.525-1 2.429-1 1.881 0 2.952 1.5 2.953 3.382m-2.62-5.977c-.976 0-2.047.333-2.762.738V2.783h-2.884l-.059 11.651s.273 4.569 5.732 4.569c3.24 0 5.498-2.406 5.498-6.168 0-3.191-2.215-5.858-5.525-5.858" fill="#FFF"/><mask id="f" fill="#fff"><use xlink:href="#e"/></mask><path fill="#FFF" mask="url(#f)" d="M105.72 18.895h2.952V7.322h-2.953zM108.92 3.757a1.725 1.725 0 11-3.449 0 1.725 1.725 0 013.45 0M67.09 18.895h2.953V7.322H67.09zM70.292 3.757a1.725 1.725 0 11-3.45 0 1.725 1.725 0 013.45 0M49.53 2.997l-2.783 10.886-.214 1.143h-.096l-2.91-12.029h-3.49l-2.934 12.029h-.096l-.214-1.143-2.738-10.886h-3.39l4.413 16.005h3.739l2.935-11.438h.095l2.828 11.438h3.715l4.436-16.005z"/></g></svg>
