<svg viewBox="0 0 161 26" xmlns="http://www.w3.org/2000/svg" xmlns:xlink="http://www.w3.org/1999/xlink"><defs><path id="a" d="M0 0h30.085v26H0z"/></defs><g fill="none" fill-rule="evenodd"><g transform="translate(.672)"><mask id="b" fill="#fff"><use xlink:href="#a"/></mask><path d="M26.99 26H3.078a3.094 3.094 0 01-3.094-3.094V3.094A3.094 3.094 0 013.077 0h23.914a3.094 3.094 0 013.094 3.094v19.812A3.094 3.094 0 0126.99 26" fill="#002266" mask="url(#b)"/></g><path fill="#FFF" d="M18.301 5.083l-5.088 1.945-.406 2.538 4.23 3.42 1.264-7.903M16.529 13.394L9.222 9.338l-5.215 1.92 7.495 4.16 5.214-1.92-.187-.104M23.844 10.797c-1.502-1.098-3.16.634-3.16.634L9.553 20.2l11.217-1.836 3.125-5.076 2.91-.315s-1.46-1.079-2.962-2.177"/><path fill="#002266" d="M60.936 3.048L57.52 16.406l-.263 1.403h-.117l-3.572-14.76h-4.283l-3.6 14.76h-.117l-.263-1.403-3.36-13.358h-4.16l5.415 19.64h4.588l3.603-14.036h.116l3.47 14.037h4.559l5.443-19.64h-4.044M74.694 8.253c-1.637 0-3.36.76-4.238 1.344V3.048H66.89v19.64h3.565V13.28s2.163-1.724 3.536-1.724c1.373 0 2.074.906 2.074 2.63v8.504h3.595V14.33c0-3.682-1.227-6.078-4.967-6.078M93.867 5.07H90.34l-.067 3.417h-2.074v3.156h2.075v6.633c0 2.747 2.046 4.705 5.114 4.705.7 0 2.055-.037 2.055-.037l.643-3.215s-1.237.037-2.056.037c-1.344 0-2.162-.76-2.162-1.812v-6.311h3.807l.253-3.156h-4.06V5.07M105.743 11.292c1.34 0 2.4.891 2.892 1.968l-6.468 2.103s-.153.026.1-1.295c.25-1.32 1.81-2.776 3.476-2.776zm.292 8.62c-1.379 0-2.507-.64-3.183-1.565l9.438-3.035s.272-1.354-.483-3.123c-.754-1.77-2.915-3.994-6.15-3.994-4.209 0-7.161 3.155-7.161 7.246 0 4.413 2.6 7.54 7.335 7.54 2.309 0 3.974-.438 5.523-1.169l-1.052-2.922c-.847.467-2.66 1.022-4.267 1.022zM153.431 11.38c1.11 0 2.22.438 2.98 1.227v4.488c0 1.533-1.387 2.716-2.947 2.73h-.033c-2.425 0-3.623-2.016-3.623-4.296 0-2.308 1.314-4.15 3.623-4.15zm-7.189 4.003c0 4.617 2.772 7.569 6.747 7.569 6.7 0 7.034-5.606 7.034-5.606l-.072-14.298h-3.54V9.1c-.876-.496-2.19-.905-3.389-.905-4.062 0-6.78 3.272-6.78 7.188zM145.278 12.11c-.496-.292-1.286-.467-1.929-.467-1.694 0-3.36 1.665-3.36 1.665v9.38h-3.623V8.488h3.419l.117 1.344c.7-.614 2.22-1.549 3.652-1.549.965 0 2.104.292 2.835.76l-1.11 3.068M124.23 15.398c0 2.28-1.198 4.295-3.624 4.295h-.033c-1.56-.014-2.947-1.196-2.947-2.73v-4.488c.76-.789 1.87-1.227 2.98-1.227 2.31 0 3.623 1.841 3.624 4.15zm-3.215-7.335c-1.198 0-2.512.409-3.389.906V2.917h-3.54l-.071 14.297s.334 5.606 7.034 5.606c3.975 0 6.746-2.951 6.746-7.569 0-3.915-2.718-7.188-6.78-7.188zM129.888 22.689h3.623V8.487h-3.623zM133.817 4.111a2.117 2.117 0 11-4.235 0 2.117 2.117 0 014.235 0M82.485 22.689h3.623V8.487h-3.623zM86.413 4.111a2.117 2.117 0 11-4.234 0 2.117 2.117 0 014.234 0"/><path fill="#002266" d="M60.936 3.18L57.52 16.537l-.263 1.403h-.117L53.569 3.18h-4.283l-3.6 14.76h-.117l-.263-1.403-3.36-13.357h-4.16l5.415 19.64h4.588l3.603-14.037h.116l3.47 14.037h4.559L64.98 3.18h-4.044"/></g></svg>
