<svg viewBox="0 0 35 35" xmlns="http://www.w3.org/2000/svg" xmlns:xlink="http://www.w3.org/1999/xlink"><defs><path id="a" d="M0 0h34v34H0z"/></defs><g transform="translate(.748 .056)" fill="none" fill-rule="evenodd"><mask id="b" fill="#fff"><use xlink:href="#a"/></mask><path d="M22.884 25.5c0-7.932-6.453-14.384-14.384-14.384V8.5c9.373 0 17 7.627 17 17h-2.616zm-5.78 0c0-4.744-3.86-8.604-8.604-8.604V14.28c6.186 0 11.219 5.033 11.219 11.219h-2.615zm-6.126 0a2.478 2.478 0 110-4.955 2.478 2.478 0 010 4.955zM17 0C7.61 0 0 7.61 0 17s7.61 17 17 17 17-7.61 17-17S26.39 0 17 0z" fill="#FFF" mask="url(#b)"/></g></svg>
