<svg viewBox="0 0 35 35" xmlns="http://www.w3.org/2000/svg" xmlns:xlink="http://www.w3.org/1999/xlink"><defs><path id="a" d="M0 0h34v34H0z"/></defs><g fill="none" fill-rule="evenodd"><path d="M17.402 20.336c1.805 0 3.27-1.46 3.27-3.26a3.266 3.266 0 00-3.27-3.262 3.266 3.266 0 00-3.27 3.262c0 1.8 1.465 3.26 3.27 3.26M21.167 13.734h2.298a.474.474 0 00.476-.474v-2.293a.475.475 0 00-.476-.475h-2.298a.475.475 0 00-.475.475v2.293c0 .263.212.474.475.474" fill="#FFF"/><g transform="translate(.383 .056)"><mask id="b" fill="#fff"><use xlink:href="#a"/></mask><path d="M25.5 23.484a2.018 2.018 0 01-2.021 2.015H10.521A2.018 2.018 0 018.5 23.484V10.516a2.02 2.02 0 012.02-2.017H23.48a2.02 2.02 0 012.02 2.017v12.968zM17-.001C7.61 0 0 7.611 0 17c0 9.39 7.61 17 17 17s17-7.61 17-17c0-9.388-7.61-17-17-17z" fill="#FFF" mask="url(#b)"/></g><path d="M22.573 17.075c0 2.846-2.32 5.159-5.17 5.159-2.852 0-5.172-2.313-5.172-5.159 0-.472.064-.93.183-1.364h-1.59v7.394c0 .261.214.474.476.474h12.205a.475.475 0 00.475-.474V15.71h-1.59c.119.435.183.892.183 1.364" fill="#FFF"/></g></svg>
