<svg viewBox="0 0 35 35" xmlns="http://www.w3.org/2000/svg"><path d="M17.508.056c9.388 0 17 7.61 17 17 0 9.389-7.612 17-17 17-9.39 0-17-7.611-17-17 0-9.39 7.61-17 17-17zm-3.641 14.448h-3.155v10.14h3.155v-10.14zm8.02-.252c-1.532 0-2.56.84-2.983 1.637h-.043v-1.385H15.84v10.14h3.15v-5.018c0-1.323.25-2.604 1.892-2.604 1.613 0 1.636 1.513 1.636 2.69v4.933h3.15v-5.56c0-2.731-.593-4.833-3.78-4.833zm-9.6-4.786a1.827 1.827 0 10.002 3.654 1.827 1.827 0 00-.002-3.654z" fill="#FFF" fill-rule="evenodd"/></svg>
