<svg viewBox="0 0 35 35" xmlns="http://www.w3.org/2000/svg" xmlns:xlink="http://www.w3.org/1999/xlink"><defs><path id="a" d="M0 0h34v34H0z"/></defs><g fill="none" fill-rule="evenodd"><g transform="translate(.557 .056)"><mask id="b" fill="#fff"><use xlink:href="#a"/></mask><path d="M25.5 17.642c0 1.376-.17 2.751-.17 2.751s-.166 1.171-.676 1.688c-.646.675-1.37.68-1.703.719-2.379.172-5.951.177-5.951.177s-4.42-.04-5.78-.17c-.378-.07-1.228-.05-1.874-.726-.51-.517-.676-1.688-.676-1.688s-.17-1.375-.17-2.751v-1.29c0-1.376.17-2.752.17-2.752s.166-1.171.676-1.687c.646-.677 1.37-.68 1.703-.72 2.379-.172 5.948-.172 5.948-.172h.006s3.569 0 5.948.172c.332.04 1.057.043 1.703.72.51.516.676 1.687.676 1.687s.17 1.376.17 2.752v1.29zM17 0C7.612 0 0 7.61 0 17c0 9.388 7.612 17 17 17s17-7.612 17-17c0-9.39-7.612-17-17-17z" fill="#FFF" mask="url(#b)"/></g><path fill="#FFF" d="M15.801 19.26l4.593-2.38-4.593-2.396z"/></g></svg>
